<svg id="Capa_1" enable-background="new 0 0 512 512" height="512" viewBox="0 0 512 512" width="512" xmlns="http://www.w3.org/2000/svg"><path d="m172.005 158.233c-33.677 33.677-95.444 26.512-95.444 26.512s-7.165-61.767 26.512-95.444c33.677-33.678 95.444-26.512 95.444-26.512s7.165 61.766-26.512 95.444z" fill="#62c136"/><path d="m198.559 63.176c-.125.097-.253.19-.378.287.22-.44.336-.675.336-.675s-61.767-7.165-95.444 26.512c-3.458 3.458-6.479 7.216-9.128 11.169 11.385 8.636 25.7 17.041 41.621 20.866 3.212.771 4.861 4.332 3.287 7.236-8.247 15.227-15.369 33.248-20.267 54.533 18.117-3.068 38.517-9.969 53.419-24.871 32.123-32.123 27.087-89.8 26.554-95.057z" fill="#5cad32"/><path d="m162.158 105.485c-47.627 0-86.236-48.742-86.236-48.742s38.609-48.743 86.236-48.743 86.237 48.742 86.237 48.742-38.609 48.743-86.237 48.743z" fill="#98db7c"/><path d="m240.281 47.744c-.001-.001-.001-.002-.002-.002-3.364-3.444-7.683-7.576-12.801-11.86-10.669 12.104-22.573 23.049-35.772 32.378-5.59 3.951-11.607 8.746-17.742 14.496-3.182 2.982-7.371 4.722-11.731 4.727-.025 0-.05 0-.074 0-34.558 0-64.363-25.659-78.121-39.742-5.203 5.326-8.115 9-8.115 9s35.325 44.588 80.076 48.468c2.031.236 4.118.274 6.161.274 47.627 0 86.237-48.742 86.237-48.742s-2.914-3.671-8.116-8.997z" fill="#82d361"/><path d="m123.427 264.989c0 105.842 47.412 157.628 80.156 180.772 16.35 11.557 30.716 25.59 43.205 41.24 7.181 8.999 17.823 16.999 32.964 16.999s25.783-8 32.965-16.999c12.489-15.65 26.855-29.683 43.205-41.24 32.743-23.144 80.156-74.93 80.156-180.772s-47.412-157.629-80.156-180.772c-16.35-11.557-30.716-25.59-43.205-41.24-7.182-9-17.824-16.999-32.965-16.999s-25.783 7.999-32.965 16.999c-12.489 15.65-26.855 29.683-43.205 41.24-32.743 23.143-80.155 74.929-80.155 180.772z" fill="#ffe55a"/><path d="m355.922 84.216c-16.35-11.557-30.716-25.59-43.205-41.24-7.182-9-17.824-16.999-32.965-16.999-4.321 0-8.264.669-11.876 1.809 9.045 2.855 15.957 8.759 21.089 15.19 12.489 15.65 26.855 29.683 43.205 41.24 32.743 23.144 80.156 74.93 80.156 180.772s-47.413 157.628-80.156 180.772c-16.35 11.557-30.716 25.59-43.205 41.24-5.132 6.431-12.043 12.334-21.089 15.19 3.612 1.14 7.555 1.809 11.876 1.809 15.141 0 25.783-8 32.965-16.999 12.489-15.65 26.855-29.683 43.205-41.24 32.743-23.144 80.156-74.93 80.156-180.772s-47.413-157.628-80.156-180.772z" fill="#ffd91d"/><path d="m126.17 309.89c4.122-.485 7.069-4.221 6.583-8.342-1.373-11.653-2.07-23.947-2.07-36.541 0-45.741 9.06-85.449 26.927-118.021 12.77-23.279 29.662-42.446 50.208-56.968 16.279-11.507 31.361-25.897 44.826-42.77 7.522-9.427 16.658-14.206 27.155-14.206s19.634 4.779 27.156 14.205c13.466 16.874 28.547 31.264 44.826 42.771 18.128 12.813 33.492 29.347 45.664 49.145 2.173 3.535 6.802 4.639 10.337 2.466 3.536-2.173 4.64-6.801 2.466-10.337-13.242-21.539-29.994-39.555-49.792-53.547-15.123-10.69-29.171-24.105-41.753-39.873-10.369-12.992-23.821-19.859-38.903-19.859-14.981 0-28.35 6.782-38.69 19.606-6.853-6.545-15.985-14.259-26.801-20.998-17.697-11.029-35.305-16.621-52.332-16.621-9.856 0-20.026 1.904-30.228 5.66-3.843 1.414-5.87 5.805-4.456 9.648 1.415 3.844 5.804 5.87 9.648 4.456 8.534-3.141 16.957-4.734 25.036-4.734 29.406 0 55.812 21.014 69.365 34.055-10.01 10.995-20.798 20.602-32.198 28.659-7.688 5.434-14.892 11.472-21.615 18.061-5.267 1.24-10.49 1.872-15.553 1.872-35.056 0-65.724-29.646-76.451-41.335 5.007-5.476 14.372-14.878 26.577-23.35 3.409-2.367 4.254-7.049 1.888-10.459-2.366-3.408-7.049-4.253-10.458-1.888-20.344 14.123-33.309 30.357-33.851 31.041-2.166 2.734-2.166 6.599 0 9.333.409.516 10.024 12.564 25.618 24.922-13.76 14.946-22.707 36.493-25.918 62.586-2.504 20.347-.712 36.277-.634 36.945.402 3.465 3.135 6.198 6.6 6.599.542.063 6.282.701 15.045.701 9.058 0 21.346-.683 34.455-3.387-6.11 23.111-9.192 48.387-9.192 75.623 0 13.18.731 26.067 2.174 38.3.478 4.066 4.274 7.063 8.341 6.582zm-42.923-132.325c-.696-15.744-.012-57.869 24.378-82.788 18.232 11.758 36.812 17.929 54.351 17.929.118 0 .238-.005.356-.006-6.609 8.35-12.589 17.376-17.899 27.057-5.673 10.342-10.495 21.347-14.499 32.952-18.76 5.187-37.358 5.261-46.687 4.856z"/><path d="m424.481 159.068c-1.611-3.826-6.014-5.62-9.841-4.012-3.825 1.61-5.621 6.016-4.012 9.841 12.136 28.84 18.29 62.522 18.29 100.109 0 45.74-9.06 85.448-26.928 118.021-12.769 23.279-29.661 42.445-50.208 56.969-16.279 11.507-31.36 25.897-44.826 42.77-7.522 9.426-16.658 14.204-27.156 14.204s-19.634-4.779-27.155-14.204c-13.465-16.873-28.547-31.263-44.826-42.771-24.248-17.138-56.084-50.072-70.054-109.649-.935-3.987-5.045-6.535-9.032-5.601-3.986.934-6.535 5.045-5.6 9.031 15.045 64.165 49.639 99.852 76.011 118.491 15.123 10.691 29.171 24.106 41.753 39.872 10.368 12.993 23.82 19.861 38.903 19.861s28.536-6.868 38.903-19.859c12.582-15.767 26.63-29.182 41.753-39.872 22.427-15.852 40.834-36.716 54.71-62.013 19.097-34.814 28.78-76.954 28.78-125.25.001-39.599-6.548-75.241-19.465-105.938z"/><circle cx="395.314" cy="297.235" r="12.716"/><circle cx="345.941" cy="310.737" r="12.716"/><circle cx="373.807" cy="352.964" r="12.716"/><ellipse cx="316.981" cy="352.962" rx="12.716" ry="12.716" transform="matrix(.924 -.383 .383 .924 -110.944 148.171)"/><ellipse cx="344.994" cy="391.899" rx="12.716" ry="12.716" transform="matrix(.16 -.987 .987 .16 -97.107 669.664)"/><circle cx="299.728" cy="418.062" r="12.716"/></svg>